<svg width="135" height="26" viewBox="0 0 135 26" fill="none" xmlns="http://www.w3.org/2000/svg">
<path d="M5.01 25V15.37L0.27 0.699998H4.92L7.53 9.25L9.96 0.699998H14.46L9.78 15.37V25H5.01ZM22.9362 25.33C21.1562 25.33 19.7462 25.01 18.7062 24.37C17.6662 23.73 16.9162 22.82 16.4562 21.64C16.0162 20.44 15.7962 19.01 15.7962 17.35V8.29C15.7962 6.63 16.0162 5.21 16.4562 4.03C16.9162 2.85 17.6662 1.95 18.7062 1.33C19.7462 0.709999 21.1562 0.399998 22.9362 0.399998C24.7362 0.399998 26.1562 0.719998 27.1962 1.36C28.2562 1.98 29.0062 2.88 29.4462 4.06C29.9062 5.22 30.1362 6.63 30.1362 8.29V17.35C30.1362 19.01 29.9062 20.44 29.4462 21.64C29.0062 22.82 28.2562 23.73 27.1962 24.37C26.1562 25.01 24.7362 25.33 22.9362 25.33ZM22.9362 21.76C23.5762 21.76 24.0462 21.62 24.3462 21.34C24.6462 21.04 24.8462 20.65 24.9462 20.17C25.0462 19.67 25.0962 19.14 25.0962 18.58V7.09C25.0962 6.53 25.0462 6.01 24.9462 5.53C24.8462 5.05 24.6462 4.67 24.3462 4.39C24.0462 4.09 23.5762 3.94 22.9362 3.94C22.3362 3.94 21.8862 4.09 21.5862 4.39C21.2862 4.67 21.0862 5.05 20.9862 5.53C20.8862 6.01 20.8362 6.53 20.8362 7.09V18.58C20.8362 19.14 20.8762 19.67 20.9562 20.17C21.0562 20.65 21.2562 21.04 21.5562 21.34C21.8562 21.62 22.3162 21.76 22.9362 21.76ZM40.2813 25.33C38.4413 25.33 37.0113 25.02 35.9913 24.4C34.9713 23.76 34.2513 22.85 33.8313 21.67C33.4313 20.47 33.2313 19.02 33.2313 17.32V0.699998H38.1213V18.01C38.1213 18.61 38.1613 19.2 38.2413 19.78C38.3413 20.36 38.5413 20.83 38.8413 21.19C39.1613 21.55 39.6413 21.73 40.2813 21.73C40.9413 21.73 41.4213 21.55 41.7213 21.19C42.0413 20.83 42.2413 20.36 42.3213 19.78C42.4013 19.2 42.4413 18.61 42.4413 18.01V0.699998H47.3313V17.32C47.3313 19.02 47.1213 20.47 46.7013 21.67C46.3013 22.85 45.5913 23.76 44.5713 24.4C43.5513 25.02 42.1213 25.33 40.2813 25.33ZM50.7851 25V0.699998H57.0851C58.7251 0.699998 60.1251 0.889999 61.2851 1.27C62.4651 1.63 63.3651 2.28 63.9851 3.22C64.6251 4.16 64.9451 5.46 64.9451 7.12C64.9451 8.12 64.8551 9.01 64.6751 9.79C64.5151 10.55 64.2151 11.22 63.7751 11.8C63.3551 12.36 62.7551 12.81 61.9751 13.15L65.3351 25H60.2651L57.4751 13.99H55.7351V25H50.7851ZM55.7351 11.05H57.1751C57.9751 11.05 58.6051 10.92 59.0651 10.66C59.5251 10.4 59.8451 10.01 60.0251 9.49C60.2251 8.95 60.3251 8.29 60.3251 7.51C60.3251 6.39 60.1151 5.54 59.6951 4.96C59.2951 4.36 58.5351 4.06 57.4151 4.06H55.7351V11.05Z" fill="#A276FF"/>
<path d="M68.2453 25V0.699998H73.6153V21.37H79.1953V25H68.2453ZM89.4752 25.36C87.6552 25.36 86.2152 25.04 85.1552 24.4C84.0952 23.76 83.3352 22.84 82.8752 21.64C82.4152 20.44 82.1852 19.01 82.1852 17.35V8.32C82.1852 6.64 82.4152 5.21 82.8752 4.03C83.3352 2.85 84.0952 1.95 85.1552 1.33C86.2152 0.689999 87.6552 0.369999 89.4752 0.369999C91.3152 0.369999 92.7652 0.689999 93.8252 1.33C94.9052 1.95 95.6752 2.85 96.1352 4.03C96.5952 5.21 96.8252 6.64 96.8252 8.32V17.35C96.8252 19.01 96.5952 20.44 96.1352 21.64C95.6752 22.84 94.9052 23.76 93.8252 24.4C92.7652 25.04 91.3152 25.36 89.4752 25.36ZM89.4752 21.55C90.0352 21.55 90.4452 21.41 90.7052 21.13C90.9652 20.85 91.1352 20.49 91.2152 20.05C91.2952 19.61 91.3352 19.16 91.3352 18.7V7C91.3352 6.52 91.2952 6.07 91.2152 5.65C91.1352 5.21 90.9652 4.85 90.7052 4.57C90.4452 4.29 90.0352 4.15 89.4752 4.15C88.9552 4.15 88.5652 4.29 88.3052 4.57C88.0452 4.85 87.8752 5.21 87.7952 5.65C87.7152 6.07 87.6752 6.52 87.6752 7V18.7C87.6752 19.16 87.7052 19.61 87.7652 20.05C87.8452 20.49 88.0052 20.85 88.2452 21.13C88.5052 21.41 88.9152 21.55 89.4752 21.55ZM107.773 25.36C106.093 25.36 104.763 25.01 103.783 24.31C102.823 23.61 102.133 22.63 101.713 21.37C101.313 20.09 101.113 18.62 101.113 16.96V8.8C101.113 7.08 101.333 5.59 101.773 4.33C102.213 3.07 102.963 2.1 104.023 1.42C105.103 0.719999 106.563 0.369999 108.403 0.369999C110.203 0.369999 111.613 0.669999 112.633 1.27C113.673 1.87 114.413 2.7 114.853 3.76C115.293 4.82 115.513 6.06 115.513 7.48V9.04H110.263V7.06C110.263 6.54 110.223 6.06 110.143 5.62C110.083 5.18 109.923 4.83 109.663 4.57C109.423 4.29 109.023 4.15 108.463 4.15C107.883 4.15 107.463 4.31 107.203 4.63C106.943 4.93 106.773 5.31 106.693 5.77C106.633 6.23 106.603 6.71 106.603 7.21V18.46C106.603 19 106.653 19.51 106.753 19.99C106.873 20.45 107.073 20.83 107.353 21.13C107.653 21.41 108.073 21.55 108.613 21.55C109.173 21.55 109.603 21.4 109.903 21.1C110.203 20.8 110.413 20.41 110.533 19.93C110.653 19.45 110.713 18.94 110.713 18.4V15.55H108.523V12.4H115.543V25H112.003L111.703 22.99C111.383 23.67 110.913 24.24 110.293 24.7C109.673 25.14 108.833 25.36 107.773 25.36ZM127.214 25.36C125.394 25.36 123.954 25.04 122.894 24.4C121.834 23.76 121.074 22.84 120.614 21.64C120.154 20.44 119.924 19.01 119.924 17.35V8.32C119.924 6.64 120.154 5.21 120.614 4.03C121.074 2.85 121.834 1.95 122.894 1.33C123.954 0.689999 125.394 0.369999 127.214 0.369999C129.054 0.369999 130.504 0.689999 131.564 1.33C132.644 1.95 133.414 2.85 133.874 4.03C134.334 5.21 134.564 6.64 134.564 8.32V17.35C134.564 19.01 134.334 20.44 133.874 21.64C133.414 22.84 132.644 23.76 131.564 24.4C130.504 25.04 129.054 25.36 127.214 25.36ZM127.214 21.55C127.774 21.55 128.184 21.41 128.444 21.13C128.704 20.85 128.874 20.49 128.954 20.05C129.034 19.61 129.074 19.16 129.074 18.7V7C129.074 6.52 129.034 6.07 128.954 5.65C128.874 5.21 128.704 4.85 128.444 4.57C128.184 4.29 127.774 4.15 127.214 4.15C126.694 4.15 126.304 4.29 126.044 4.57C125.784 4.85 125.614 5.21 125.534 5.65C125.454 6.07 125.414 6.52 125.414 7V18.7C125.414 19.16 125.444 19.61 125.504 20.05C125.584 20.49 125.744 20.85 125.984 21.13C126.244 21.41 126.654 21.55 127.214 21.55Z" fill="white"/>
</svg>
